<svg viewBox="0 0 1024 1024" fill="currentColor" width="32" height="32" xmlns="http://www.w3.org/2000/svg" xmlns:xlink="http://www.w3.org/1999/xlink">
    <path transform="matrix(1, 0, 0, -1, 0, 1024)" d="M615 995.6c-13.2-15.4-26-29.4-28.6-31.2-3.8-2.6-9.4-2.6-41-0.6-39 2.4-54 1.8-93.8-3.2-13.8-1.6-27.4-2.6-30-2-2.6 0.8-17.2 13.8-32.4 29.4-15.4 15.4-28.6 28-29.6 28-2.6 0-116.2-49.8-118-51.6-1-1-0.2-18.8 1.4-40 2.6-33.2 2.6-39.2 0.2-44-1.6-3-11-12-21-20.2-23.4-19-53-49.8-71.6-75.2-8.2-11-16.8-21.2-19.2-22.4-3.4-2-14.4-2.2-44.4-1.4l-40 1.2-23.6-61.6c-12.8-33.8-22.8-62-21.8-62.6s14.4-12.2 30-25.8c17-14.6 28.8-26.6 29.6-29.4 0.6-2.6 0.2-20.2-1-38.8-2.4-36.8-1.8-55.6 3.2-93.4 1.8-13.4 2.6-26.4 2-29S51.6 404.4 36 389.2c-15.4-15.4-28-28.6-28-29.6 0-2.6 49.8-116.2 51.6-118 1-1 18.8-0.2 39.8 1.4 24 1.8 40.2 2.4 43 1.2 2.6-1 12.2-10.8 21-21.6 20.6-25 49.8-53 75.6-72 11-8.2 21.2-16.8 22.4-19.2 2-3.4 2.2-14.4 1.4-44.4l-1.2-40 61.6-23.6c33.8-12.8 62-22.8 62.6-21.8s12.2 14.4 25.8 30c14.6 17 26.6 28.8 29.4 29.6 2.6 0.6 20.2 0.2 38.8-1 36.8-2.4 55.6-1.8 93.4 3.2 13.4 1.8 26.4 2.6 29 2s17.4-13.8 32.6-29.4c15.4-15.4 28.6-28 29.6-28 2.6 0 116.2 49.8 118 51.6 1 1 0.2 18.8-1.4 39.8-1.8 24-2.4 40.2-1.2 43 1 2.6 10.8 12.2 21.6 21 25 20.6 53 49.8 72 75.6 8.2 11 16.8 21.2 19.2 22.4 3.4 2 14.4 2.2 44.4 1.4l40-1.2 23.6 61.6c12.8 33.8 22.8 62 21.8 62.6s-14.4 12.2-30 25.8c-17 14.6-28.8 26.6-29.6 29.4-0.6 2.6-0.2 20.2 1 38.8 2.4 36.8 1.8 55.6-3.2 93.4-1.8 13.4-2.6 26.4-2 29s13.8 17.4 29.4 32.6c15.4 15.4 28 28.6 28 29.6 0 2.6-49.8 116.2-51.6 118-1 1-18.8 0.2-40-1.4-33.2-2.6-39.2-2.6-44-0.2-3 1.6-12 11-20.2 21-19 23.4-49.8 53-75.2 71.6-11 8.2-21.2 16.8-22.4 19.2-2 3.4-2.2 14.4-1.4 44.4l1.2 40-58.6 22.4c-32.4 12.4-60.2 22.8-61.8 23.4-2 0.6-11-8.4-27-27.2zM562.8 862.8c56.6-8.8 109.6-30 155.2-62.4 24.4-17.4 65.4-58.2 82.4-82.4 43.2-61.2 65.6-131.4 65.6-206s-22.4-144.8-65.6-206c-17.2-24.4-58-65.2-82.4-82.4-61.2-43.2-131.4-65.6-206-65.6s-144.8 22.4-206 65.6c-24.2 17-65 58-82.4 82.4-43.2 61-65.6 131.4-65.6 206s22.4 144.8 65.6 206c17.2 24.4 58 65.2 82.4 82.4 33 23.4 78.8 44.8 116.4 54.8 41 10.8 100 14 140.4 7.6zM479 843.8C341 829.4 224.2 729 191.2 596.2c-8.2-32.6-10-48-10-82.2 0-81.6 26.2-152.8 79.6-215.8 66.2-78.6 175.6-123.6 277.8-114.6C656.2 194.2 757 261 809.2 363.4c24.4 48 35.6 95.2 35.6 150.6 0 34.2-1.8 49.6-10 82.2C795.6 753.6 641.6 860.8 479 843.8zM674 762.2c2.6-5.2 2.6-81.2 0-86.4-2-3.6-5.4-3.8-115.6-3.8H444.8l-10.4-5.2c-11.2-5.6-26.2-20.8-33-33.6-4.4-8-4.4-10.2-5-101.2-0.6-99.2 0.8-126.4 7.8-145 6.2-16.6 18.4-30.8 32.8-38l12-6h56c54.2 0 56.4 0.2 66 4.6 12 5.6 21.8 14.6 27.6 25.4 3.8 7.2 4.4 11.8 5 46.2 0.6 33.6 0.4 38.6-2.6 41.4-3 3-10.2 3.4-66 3.4-55.2 0-62.8 0.4-63.8 3.2-1.8 4.6-1.4 85.4 0.4 88.4 1.4 2 26.6 2.4 119.6 2L709 557l0.6-92c0.4-87 0.2-92.8-3.6-107.6-13.6-52.8-57-95.8-107-106.4-20.8-4.4-179-4.4-195.8 0-46.4 12.2-86.8 55.4-104.6 112l-5.6 18v266l6.6 16.8c18.4 48 54.6 85.8 94.2 98.4 10.2 3.2 22 3.6 144.6 3.6 130 0.2 133.6 0 135.6-3.6z" />
</svg>